<?xml version="1.0" encoding="iso-8859-1"?>
<!-- Generator: Adobe Illustrator 22.1.0, SVG Export Plug-In . SVG Version: 6.00 Build 0)  -->
<svg version="1.1" id="Layer_1" xmlns="http://www.w3.org/2000/svg" xmlns:xlink="http://www.w3.org/1999/xlink" x="0px" y="0px"
	 viewBox="0 0 199.487 294.979" style="enable-background:new 0 0 199.487 294.979;" xml:space="preserve">
<g>
	<g>
		<g>
			<path style="fill:#0014C7;" d="M137.004,294.979c73.958-48.94,27.01-98.657-20.17-140.318C51.474,90.981,67.435,26.27,158.887,0
				c-26.892,24.088-60.611,52.013-45.5,87.38c22.476,59.765,83.238,2.383,32.683-15.188c24.396-7.363,48.179,6.754,52.856,31.074
				c4.526,29.689-19.719,31.683-23.172,58.458c-3.454,26.774,25.545,46.415,22.013,75.876
				C194.159,269.742,166.848,285.086,137.004,294.979z"/>
		</g>
		<g>
			<path style="fill:#004AFF;" d="M179.544,260.731c21.362-51.156-36.595-88.821-65.38-120.682
				c-34.163-37.811-40.719-86.638,7.511-115.597c-22.53,26.034-30.388,70.254,3.231,92.248c22.925,15,61.482-8.263,45.65-36.229
				c42.003,15.376,6.929,48.078-0.737,70.551C156.344,190.52,210.395,223.205,179.544,260.731z"/>
		</g>
		<g>
			
				<linearGradient id="SVGID_1_" gradientUnits="userSpaceOnUse" x1="130.1821" y1="184.5217" x2="130.1821" y2="106.9343" gradientTransform="matrix(0.9996 0.0286 -0.0286 0.9996 13.3528 -14.4038)">
				<stop  offset="0" style="stop-color:#FFFFFF"/>
				<stop  offset="1" style="stop-color:#007DDE"/>
			</linearGradient>
			<path style="fill:url(#SVGID_1_);" d="M160.335,174.4c-22.908-24.462-53.718-45.358-62.884-79.419
				c12.826,35.973,76.023,51.77,84.594,4.003C189.628,121.23,155.478,147.548,160.335,174.4z"/>
		</g>
	</g>
	<g>
		<g>
			<path style="fill:#0014C7;" d="M75.841,53.188c-17.028,24.326-6.082,62.032,8.514,85.142
				c15.813,25.544,62.034,35.274,49.87,71.764c-21.895,70.547-148.392,40.139-94.874-37.705
				c-19.157,39.225,31.626,58.384,30.408,12.163c-1.216-25.544-20.676-23.11-35.272-32.841
				c-23.111-15.811-14.596-38.923,1.216-55.95c-7.298,15.812-3.648,32.84,10.947,13.378C58.812,94.543,54.251,67.48,75.841,53.188z"
				/>
		</g>
		<g>
			<path style="fill:#004AFF;" d="M77.826,241.516c-18.481,0.002-41.24-9.51-43.213-30.528c21.09,23.54,44.752-3.212,43.363-26.826
				c-1.539-32.348-54.474-32.64-49.045-60.578c13.655,11.069,28.08-13.294,31.614-23.111c3.814,20.403,13.082,41.876,28.714,55.976
				c11.86,10.7,32.851,19.9,37.879,36.248C135.573,220.117,100.658,241.513,77.826,241.516z"/>
		</g>
		<g>
			<linearGradient id="SVGID_2_" gradientUnits="userSpaceOnUse" x1="79.654" y1="233.2891" x2="79.654" y2="121.833">
				<stop  offset="0" style="stop-color:#FFFFFF"/>
				<stop  offset="1" style="stop-color:#007DDE"/>
			</linearGradient>
			<path style="fill:url(#SVGID_2_);" d="M77.825,233.289c-7.505,0.003-15.339-1.702-21.985-5.25
				c22.521-3.457,34.846-32.318,29.021-52.539c-6.566-22.791-31.03-25.595-45.119-41.183c7.453-1.364,13.486-6.78,18.04-12.484
				c10.558,29.852,31.099,41.317,52.976,61.317C135.63,205.889,102.437,233.282,77.825,233.289z"/>
		</g>
	</g>
	<g>
		<g>
			<path style="fill:#0014C7;" d="M149.712,205.877c36.264,28.205-1.679,88.98-70.849,88.98c-52.718,0-102.077-39.957-67.156-98.718
				c-5.708,38.176,24.641,67.471,62.24,67.491C106.828,263.65,151.055,251.542,149.712,205.877z"/>
		</g>
		<g>
			<linearGradient id="SVGID_3_" gradientUnits="userSpaceOnUse" x1="81.9822" y1="286.6309" x2="81.9822" y2="227.9346">
				<stop  offset="0" style="stop-color:#FFFFFF"/>
				<stop  offset="1" style="stop-color:#007DDE"/>
			</linearGradient>
			<path style="fill:url(#SVGID_3_);" d="M78.863,286.631c-31.474,0-72.405-17.941-70.559-55.059
				c24.091,54.026,126.925,55.579,146.6-3.638C163.101,266.666,107.515,286.631,78.863,286.631z"/>
		</g>
	</g>
</g>
</svg>
